<svg width="23" height="23" viewBox="0 0 23 23" fill="none" xmlns="http://www.w3.org/2000/svg"><path d="M22.787 10.114a21.606 21.606 0 00-2.347-3.741l2.027-2.027L18.655.535 16.628 2.56A21.606 21.606 0 0012.887.214l-.433-.213L6.686 5.77l.213.433a21.61 21.61 0 002.347 3.741L.79 18.4c-.51.509-.79 1.186-.79 1.906s.28 1.397.79 1.906A2.687 2.687 0 002.694 23c.69 0 1.38-.263 1.906-.788l8.457-8.457a21.61 21.61 0 003.741 2.347l.433.213L23 10.547l-.213-.433zM18.655 2.44l1.906 1.906-.986.986a21.956 21.956 0 00-1.906-1.906l.986-.986zM3.648 21.26a1.35 1.35 0 01-2.3-.953c0-.36.14-.698.394-.953l6.43-6.43 1.906 1.906-6.43 6.43zm7.383-7.383L9.125 11.97l.986-.986a21.96 21.96 0 001.906 1.906l-.986.986zm5.935.8a20.503 20.503 0 01-8.64-8.64L12.72 1.64a20.503 20.503 0 018.64 8.64l-4.394 4.394z" fill="#fff"/></svg>