<svg width="25" height="25" viewBox="0 0 25 25" fill="none" xmlns="http://www.w3.org/2000/svg"><g clip-path="url(#clip0)"><path d="M24.893 8.322l-3.977-5.519a.57.57 0 00-.462-.236H4.546a.569.569 0 00-.462.236L.107 8.323a.57.57 0 00.04.713l11.942 13.21a.57.57 0 00.845 0L24.862 9.024a.57.57 0 00.03-.702zm-1.574-.236h-5.73l2.865-3.977 2.865 3.977zm-7.607 1.138L12.51 19.89 9.29 9.224h6.422zM9.635 8.086L12.5 4.109l2.865 3.977h-5.73zm3.977-4.38h5.73L16.477 7.68l-2.865-3.976zM8.523 7.68L5.658 3.705h5.73L8.524 7.681zM8.1 9.224l3.134 10.379L1.851 9.224H8.1zm8.8 0h6.272l-9.39 10.386L16.9 9.224zM4.546 4.109l2.865 3.977h-5.73l2.865-3.977z" fill="#fff"/></g><defs><clipPath id="clip0"><path fill="#fff" d="M0 0h25v25H0z"/></clipPath></defs></svg>