<svg width="22" height="22" viewBox="0 0 22 22" fill="none" xmlns="http://www.w3.org/2000/svg"><path d="M21.773 14.8a4.99 4.99 0 010-7.598c.474-.405.152-1.182-.469-1.133A4.992 4.992 0 0115.932.696c.048-.62-.729-.942-1.133-.469a4.992 4.992 0 01-7.598 0C6.797-.246 6.02.076 6.068.697A4.99 4.99 0 01.696 6.068c-.62-.049-.943.728-.47 1.133a4.99 4.99 0 010 7.598c-.473.404-.151 1.181.47 1.132a4.99 4.99 0 015.372 5.373c-.049.62.729.942 1.133.469a4.992 4.992 0 017.598 0c.402.47 1.182.153 1.133-.47a4.992 4.992 0 015.372-5.372c.62.05.943-.728.47-1.132zm-1.835-.097a6.274 6.274 0 00-5.236 5.235 6.28 6.28 0 00-7.404 0 6.272 6.272 0 00-1.764-3.471 6.272 6.272 0 00-3.472-1.764A6.272 6.272 0 003.27 11c0-1.345-.43-2.637-1.208-3.703a6.273 6.273 0 005.236-5.235 6.28 6.28 0 007.404 0 6.28 6.28 0 005.236 5.235A6.272 6.272 0 0018.73 11c0 1.344.43 2.636 1.208 3.702z" fill="#fff"/><path d="M11 4.823A6.184 6.184 0 004.822 11 6.184 6.184 0 0011 17.177 6.184 6.184 0 0017.177 11 6.184 6.184 0 0011 4.823zm0 11.065A4.894 4.894 0 016.11 11 4.894 4.894 0 0111 6.112 4.894 4.894 0 0115.888 11 4.894 4.894 0 0111 15.888z" fill="#fff"/></svg>