<svg width="24" height="24" viewBox="0 0 24 24" fill="none" xmlns="http://www.w3.org/2000/svg"><path d="M11.294 15.562v-9.27a.703.703 0 10-1.407 0v9.27a2.862 2.862 0 00-2.153 2.769 2.86 2.86 0 002.857 2.856 2.86 2.86 0 002.856-2.857 2.862 2.862 0 00-2.153-2.768zm-.704 4.219c-.799 0-1.45-.65-1.45-1.45a1.451 1.451 0 111.45 1.45z" fill="#fff"/><path d="M14.08 13.862V3.49A3.494 3.494 0 0010.59 0a3.494 3.494 0 00-3.489 3.49v10.372a5.668 5.668 0 00-2.18 4.468 5.676 5.676 0 005.67 5.67 5.676 5.676 0 005.668-5.67 5.668 5.668 0 00-2.179-4.468zm-3.49 8.732A4.264 4.264 0 018.2 14.8a.703.703 0 00.308-.582V3.49c0-1.149.935-2.084 2.084-2.084 1.148 0 2.083.935 2.083 2.084v10.73a.7.7 0 00.308.58 4.264 4.264 0 01-2.391 7.794z" fill="#fff"/><path d="M18.369 11.226h-2.18a.703.703 0 100 1.406h2.18a.703.703 0 000-1.406zm0-2.813h-2.18a.703.703 0 100 1.406h2.18a.703.703 0 000-1.406zm0-2.813h-2.18a.703.703 0 100 1.406h2.18a.703.703 0 000-1.406zM16.19 4.193h2.179a.703.703 0 000-1.406h-2.18a.703.703 0 000 1.406z" fill="#fff"/></svg>