<svg width="19" height="24" viewBox="0 0 19 24" fill="none" xmlns="http://www.w3.org/2000/svg"><mask id="a" fill="#fff"><path d="M19 9.913C19 15.388 13 20.87 9.5 24 6 20.87 0 15.388 0 9.913S4.253 0 9.5 0 19 4.438 19 9.913z"/></mask><path d="M9.5 24l-.667.745.667.597.667-.597L9.5 24zM18 9.913c0 2.393-1.325 4.908-3.221 7.302-1.878 2.37-4.193 4.472-5.946 6.04l1.334 1.49c1.747-1.563 4.182-3.767 6.18-6.288C18.324 15.958 20 12.995 20 9.913h-2zm-7.833 13.342c-1.753-1.568-4.068-3.67-5.946-6.04C2.325 14.82 1 12.305 1 9.913h-2c0 3.082 1.675 6.045 3.654 8.544 1.997 2.52 4.432 4.725 6.18 6.288l1.333-1.49zM1 9.913C1 4.95 4.845 1 9.5 1v-2C3.661-1-1 3.926-1 9.913h2zM9.5 1C14.155 1 18 4.95 18 9.913h2C20 3.926 15.339-1 9.5-1v2z" fill="#F4004D" mask="url(#a)"/><circle cx="9.5" cy="9.5" r="5" stroke="#F4004D"/></svg>