<svg width="19" height="19" viewBox="0 0 19 19" fill="none" xmlns="http://www.w3.org/2000/svg"><path d="M9.5 1.056c4.656 0 8.445 3.788 8.445 8.444A.527.527 0 1019 9.5C19 4.262 14.738 0 9.5 0a.527.527 0 100 1.056z" fill="#F4004D"/><path d="M9.5 4.222A5.284 5.284 0 0114.778 9.5a.527.527 0 101.055 0A6.34 6.34 0 009.5 3.167a.527.527 0 100 1.055z" fill="#F4004D"/><path d="M17.475 12.471c-1.163 0-2.305-.182-3.387-.54-.541-.183-1.154-.042-1.506.318l-2.137 1.613c-2.477-1.323-4.003-2.848-5.308-5.307l1.565-2.08c.407-.407.553-1 .378-1.557a10.804 10.804 0 01-.542-3.393C6.538.684 5.855 0 5.014 0h-3.49C.685 0 0 .684 0 1.525 0 11.16 7.84 19 17.475 19c.841 0 1.525-.684 1.525-1.525v-3.48c0-.84-.684-1.524-1.525-1.524zm.47 5.004a.47.47 0 01-.47.47c-9.054 0-16.42-7.366-16.42-16.42a.47.47 0 01.47-.47h3.489a.47.47 0 01.469.47c0 1.276.2 2.53.593 3.716.054.175.01.357-.167.541L4.094 8.185a.528.528 0 00-.05.557c1.482 2.91 3.281 4.71 6.212 6.212a.525.525 0 00.559-.048l2.458-1.863a.464.464 0 01.478-.11c1.195.394 2.448.594 3.724.594.26 0 .47.21.47.469v3.48z" fill="#F4004D"/></svg>