<svg width="22" height="22" viewBox="0 0 22 22" fill="none" xmlns="http://www.w3.org/2000/svg"><path d="M11 1.222c5.391 0 9.777 4.387 9.777 9.778A.61.61 0 1022 11c0-6.065-4.935-11-11-11a.61.61 0 100 1.222z" fill="#F4004D"/><path d="M11 4.889a6.118 6.118 0 016.11 6.11.61.61 0 101.223 0c0-4.043-3.29-7.333-7.333-7.333a.61.61 0 100 1.223z" fill="#F4004D"/><path d="M20.235 14.44c-1.347 0-2.67-.21-3.923-.624-.626-.214-1.336-.05-1.744.367l-2.474 1.867c-2.868-1.53-4.635-3.297-6.146-6.145l1.813-2.409c.47-.47.64-1.157.437-1.801a12.51 12.51 0 01-.627-3.93A1.768 1.768 0 005.805 0h-4.04C.792 0 0 .792 0 1.765 0 12.923 9.077 22 20.235 22c.973 0 1.765-.792 1.765-1.765v-4.03c0-.973-.792-1.765-1.765-1.765zm.543 5.795c0 .3-.244.543-.543.543-10.484 0-19.013-8.529-19.013-19.013 0-.3.244-.543.543-.543h4.04c.3 0 .544.244.544.543 0 1.479.232 2.93.686 4.304.063.203.012.413-.193.626L4.74 9.478a.611.611 0 00-.057.645c1.714 3.37 3.798 5.453 7.191 7.192a.61.61 0 00.647-.056l2.846-2.156a.538.538 0 01.554-.13c1.384.458 2.835.69 4.313.69.3 0 .543.243.543.543v4.029z" fill="#F4004D"/></svg>