<svg width="226" height="31" viewBox="0 0 226 31" fill="none" xmlns="http://www.w3.org/2000/svg"><path fill-rule="evenodd" clip-rule="evenodd" d="M29.054 15.939L14.991 30.083.927 15.94 14.991 1.794V15.94h14.063zM.861 1.728h28.26V30.15H.86V1.728zm220.9-.156v11.943h-17.314V1.572c-.664.067-3.052.067-3.649 0v28.422h3.649V15.717h17.314v14.277h3.648V1.572s-3.051.067-3.648 0zm-50.615 0v28.422h1.26c.465-.6 19.702-23.151 19.702-23.151v23.151h3.649V1.572h-1.858L174.662 23.79l.066-.534V1.572h-3.582zm-8.226 0h-.995l-11.144 21.75-11.675-21.75h-.863l-4.113 28.422h2.521l2.587-21.083 10.879 20.617 10.482-20.35 2.454 20.816h3.914L162.92 1.572zm-46.037 5.07l4.246 10.342h-8.624l4.378-10.341zm14.063 23.352L118.409.971h-.531l-13.267 29.023h2.454l4.71-11.208h10.15l4.577 11.208h4.444zM92.604 15.316V3.44h5.44c3.316 0 5.373 2.669 5.373 5.471 0 3.67-1.858 6.338-6.17 6.338l-4.643.067zm0 14.678V17.118l5.838-.067c4.112 0 8.491-3.002 8.491-8.407 0-5.004-2.654-7.139-10.614-7.139h-7.364v28.423h3.649v.066zm-20.63-16.012V3.573h7.296l3.914.267V1.572H68.391V29.86h14.727v-2.268l-3.715.267h-7.43V15.783h9.553v-1.801h-9.552zm-8.757-12.41h-3.051l-13.334 13.61V1.573h-3.648v28.422h3.648V16.518l.73-.8L59.17 29.993h5.373L51.409 13.648 63.217 1.572z" fill="#F4004D"/></svg>