<svg width="21" height="20" viewBox="0 0 21 20" fill="none" xmlns="http://www.w3.org/2000/svg"><path stroke="#FF0F5B" d="M9.991.005V20m0-19.995V20m0-19.995V20m2.833-18.884l-2.777 2.221L7.27 1.116"/><path d="M12.824 1.116l-2.777 2.221L7.27 1.116" stroke="#FF0F5B"/><path d="M12.824 1.116l-2.777 2.221L7.27 1.116m5.554 17.774l-2.777-2.222-2.777 2.221" stroke="#FF0F5B"/><path d="M12.824 18.89l-2.777-2.222-2.777 2.221" stroke="#FF0F5B"/><path d="M12.824 18.89l-2.777-2.222-2.777 2.221M1.361 5.052l17.316 9.998M1.361 5.052l17.316 9.998M1.361 5.052l17.316 9.998M3.74 3.154l.535 3.516L.962 7.964" stroke="#FF0F5B"/><path d="M3.74 3.154l.535 3.516L.962 7.964" stroke="#FF0F5B"/><path d="M3.74 3.154l.535 3.516L.962 7.964m18.169 4.076l-3.313 1.295.536 3.516" stroke="#FF0F5B"/><path d="M19.131 12.04l-3.313 1.295.536 3.516" stroke="#FF0F5B"/><path d="M19.131 12.04l-3.313 1.295.536 3.516m2.323-11.896L1.361 14.953m17.316-9.998L1.361 14.953m17.316-9.998L1.361 14.953m17.77-6.989L15.818 6.67l.536-3.516" stroke="#FF0F5B"/><path d="M19.131 7.964L15.818 6.67l.536-3.516" stroke="#FF0F5B"/><path d="M19.131 7.964L15.818 6.67l.536-3.516M3.74 16.85l.535-3.515L.962 12.04" stroke="#FF0F5B"/><path d="M3.74 16.85l.535-3.515L.962 12.04" stroke="#FF0F5B"/><path d="M3.74 16.85l.535-3.515L.962 12.04" stroke="#FF0F5B"/></svg>