<svg width="46" height="14" viewBox="0 0 46 14" fill="none" xmlns="http://www.w3.org/2000/svg"><path d="M36.185 11.44l-1 2.56H32.13l5.754-14h1.619l5.674 14H42.12l-.999-2.56h-4.935zM38.663 5l-1.519 3.82h3.017L38.663 5zM21.817 9.7L20.04 14H19l5.835-14h.48l5.814 14h-1.04l-1.778-4.3h-6.494zm3.257-7.88L22.177 8.8h5.795l-2.898-6.98z" fill="#333"/><path d="M1.439 7.717c-.06-.07-.114-.137-.165-.2.058-.067.12-.14.188-.215a19.66 19.66 0 011.8-1.798C4.801 4.162 6.688 3 8.5 3c1.812 0 3.7 1.162 5.238 2.504a19.662 19.662 0 011.988 2.014l-.165.199a17.42 17.42 0 01-1.729 1.787C12.345 10.829 10.456 12 8.5 12s-3.845-1.17-5.333-2.496A17.477 17.477 0 011.44 7.717z" stroke="#333" stroke-width="2"/><circle cx="8.5" cy="7.5" r="1.5" fill="#000"/></svg>