<svg width="23" height="23" viewBox="0 0 23 23" fill="none" xmlns="http://www.w3.org/2000/svg">
<path d="M22.7869 10.1141C22.1339 8.78722 21.3449 7.5339 20.4399 6.37303L22.4666 4.34633L18.6548 0.534578L16.6281 2.56132C15.4672 1.65628 14.2139 0.867314 12.887 0.214285L12.4541 0.0012207L6.68604 5.76923L6.8991 6.2021C7.55218 7.529 8.34114 8.78232 9.24618 9.94324L0.789457 18.3999C0.280357 18.909 0 19.5859 0 20.3058C0 21.0258 0.280312 21.7026 0.789412 22.2117C1.31491 22.7372 2.00509 22.9999 2.69531 22.9999C3.38549 22.9999 4.07572 22.7371 4.60117 22.2117L13.0579 13.755C14.2188 14.66 15.4722 15.449 16.799 16.102L17.2319 16.3151L23 10.547L22.7869 10.1141ZM18.6548 2.44043L20.5607 4.34629L19.5752 5.33174C18.9797 4.65814 18.3429 4.02141 17.6693 3.42584L18.6548 2.44043ZM3.64824 21.2588C3.12279 21.7842 2.26784 21.7841 1.74234 21.2588C1.48781 21.0043 1.34766 20.6658 1.34766 20.3059C1.34766 19.9459 1.48786 19.6075 1.74238 19.3529L8.17241 12.9229L10.0783 14.8287L3.64824 21.2588ZM11.0312 13.8758L9.12534 11.9699L10.1108 10.9845C10.7063 11.6581 11.3431 12.2948 12.0167 12.8904L11.0312 13.8758ZM16.9656 14.6755C13.2885 12.7547 10.2465 9.71265 8.3256 6.03557L12.7204 1.64073C16.3975 3.56159 19.4395 6.60357 21.3604 10.2807L16.9656 14.6755Z" fill="white"/>
</svg>
