<svg width="25" height="25" viewBox="0 0 25 25" fill="none" xmlns="http://www.w3.org/2000/svg">
<g clip-path="url(#clip0)">
<path d="M24.8926 8.32219L20.9157 2.80331C20.8087 2.65488 20.6369 2.56689 20.4539 2.56689H4.54609C4.36312 2.56689 4.19136 2.65482 4.08436 2.80331L0.107404 8.32219C-0.0174608 8.49548 -0.034819 8.72416 0.0625007 8.91424C0.0854932 8.9592 0.114348 8.99984 0.1473 9.03626L12.0893 22.2458C12.1972 22.3651 12.3506 22.4332 12.5115 22.4332C12.6724 22.4332 12.8258 22.3651 12.9337 22.2458L24.8624 9.02425C24.891 8.99079 24.9169 8.95448 24.9375 8.91424C25.0348 8.7241 25.0175 8.49543 24.8926 8.32219ZM23.3193 8.08577H17.5886L20.4539 4.1095L23.3193 8.08577ZM15.7119 9.22402L12.5099 19.89L9.28937 9.22402H15.7119ZM9.63466 8.08577L12.5 4.1095L15.3654 8.08577H9.63466ZM13.6116 3.70514H19.3423L16.477 7.68147L13.6116 3.70514ZM8.52305 7.68141L5.6577 3.70514H11.3885L8.52305 7.68141ZM8.10042 9.22402L11.2342 19.6026L1.85091 9.22402H8.10042ZM16.9003 9.22402H23.1721L13.7825 19.6096L16.9003 9.22402ZM4.54609 4.1095L7.41144 8.08577H1.68074L4.54609 4.1095Z" fill="white"/>
</g>
<defs>
<clipPath id="clip0">
<rect width="25" height="25" fill="white"/>
</clipPath>
</defs>
</svg>
