<svg width="22" height="22" viewBox="0 0 22 22" fill="none" xmlns="http://www.w3.org/2000/svg">
<path d="M21.7734 14.7996C20.6587 13.8476 20.0194 12.4629 20.0194 11.0006C20.0194 9.53827 20.6587 8.15356 21.7734 7.20159C22.2467 6.79734 21.9247 6.02003 21.3043 6.06902C18.2377 6.31003 15.6904 3.76009 15.9317 0.696376C15.9805 0.0756496 15.2032 -0.245972 14.799 0.227243C12.8013 2.56642 9.19634 2.56363 7.201 0.227243C6.79667 -0.246058 6.01958 0.0758644 6.06839 0.696376C6.18346 2.15779 5.6564 3.58899 4.6224 4.62299C3.58836 5.65699 2.15742 6.18387 0.695748 6.06902C0.0750645 6.02016 -0.246557 6.79747 0.226658 7.20159C1.34131 8.15356 1.98064 9.53823 1.98064 11.0005C1.98064 12.4629 1.34131 13.8476 0.226615 14.7995C-0.246514 15.2036 0.0749356 15.981 0.695705 15.9321C2.15737 15.817 3.58832 16.3441 4.62236 17.3781C5.65636 18.4121 6.18342 19.8433 6.06835 21.3047C6.01949 21.9254 6.79675 22.2471 7.20096 21.7739C9.19866 19.4347 12.8037 19.4375 14.799 21.7739C15.2012 22.2448 15.9806 21.9273 15.9316 21.3047C15.6902 18.2385 18.2405 15.6912 21.3042 15.9321C21.9249 15.9814 22.2466 15.2037 21.7734 14.7996ZM19.9378 14.7027C18.6342 14.906 17.4168 15.5161 16.4661 16.4667C15.5154 17.4174 14.9053 18.6346 14.7021 19.9383C12.4982 18.3288 9.5028 18.328 7.29781 19.9383C7.09461 18.6347 6.4845 17.4174 5.53381 16.4667C4.58309 15.516 3.36587 14.9059 2.06215 14.7027C2.84036 13.6371 3.26962 12.345 3.26962 11.0005C3.26962 9.65605 2.84032 8.36393 2.06215 7.2984C3.36574 7.09511 4.58317 6.485 5.53381 5.53436C6.48454 4.58363 7.09461 3.36645 7.29785 2.06274C9.50176 3.67231 12.4972 3.67304 14.7021 2.06274C15.1225 4.75942 17.24 6.87786 19.9378 7.2984C19.1596 8.36393 18.7303 9.65605 18.7303 11.0005C18.7303 12.345 19.1596 13.6372 19.9378 14.7027Z" fill="white"/>
<path d="M10.9996 4.82263C7.59345 4.82263 4.82227 7.59377 4.82227 10.9999C4.82227 14.4061 7.59341 17.1773 10.9996 17.1773C14.4058 17.1773 17.1769 14.4062 17.1769 10.9999C17.1769 7.59373 14.4057 4.82263 10.9996 4.82263ZM10.9996 15.8883C8.30415 15.8883 6.11129 13.6954 6.11129 10.9999C6.11129 8.30452 8.30415 6.11161 10.9996 6.11161C13.695 6.11161 15.8879 8.30452 15.8879 10.9999C15.8879 13.6954 13.695 15.8883 10.9996 15.8883Z" fill="white"/>
</svg>
