<svg width="24" height="24" viewBox="0 0 24 24" fill="none" xmlns="http://www.w3.org/2000/svg">
<path d="M11.2936 15.5616V6.2915C11.2936 5.90314 10.9788 5.58838 10.5905 5.58838C10.2023 5.58838 9.88733 5.90314 9.88733 6.2915V15.5616C8.65137 15.8758 7.73438 16.9979 7.73438 18.3305C7.73438 19.9056 9.01556 21.187 10.5905 21.187C12.1653 21.187 13.4467 19.9056 13.4467 18.3305C13.4467 16.9979 12.5295 15.8758 11.2936 15.5616ZM10.5905 19.7807C9.79102 19.7807 9.14062 19.1301 9.14062 18.3305C9.14062 17.5307 9.79102 16.8801 10.5905 16.8801C11.3901 16.8801 12.0405 17.5307 12.0405 18.3305C12.0405 19.1301 11.3901 19.7807 10.5905 19.7807Z" fill="white"/>
<path d="M14.0801 13.8622V3.48999C14.0801 1.56555 12.5147 0 10.5905 0C8.66638 0 7.10101 1.56555 7.10101 3.48999V13.8622C5.72992 14.9339 4.92188 16.5773 4.92188 18.3303C4.92188 21.4567 7.46484 24 10.5905 24C13.7162 24 16.2592 21.4567 16.2592 18.3303C16.2592 16.5773 15.4512 14.9339 14.0801 13.8622ZM10.5905 22.5938C8.24011 22.5938 6.32812 20.6812 6.32812 18.3303C6.32812 16.9162 7.02759 15.5967 8.19928 14.8008C8.39191 14.6699 8.50726 14.452 8.50726 14.2191V3.48999C8.50726 2.341 9.44183 1.40625 10.5905 1.40625C11.7393 1.40625 12.6738 2.341 12.6738 3.48999V14.2191C12.6738 14.452 12.7892 14.6699 12.9818 14.8008C14.1535 15.5967 14.853 16.9162 14.853 18.3303C14.853 20.6812 12.9408 22.5938 10.5905 22.5938Z" fill="white"/>
<path d="M18.3686 11.226H16.1895C15.8011 11.226 15.4863 11.5407 15.4863 11.9291C15.4863 12.3174 15.8011 12.6322 16.1895 12.6322H18.3686C18.7568 12.6322 19.0717 12.3174 19.0717 11.9291C19.0717 11.5407 18.7568 11.226 18.3686 11.226Z" fill="white"/>
<path d="M18.3686 8.41296H16.1895C15.8011 8.41296 15.4863 8.72772 15.4863 9.11609C15.4863 9.50446 15.8011 9.81921 16.1895 9.81921H18.3686C18.7568 9.81921 19.0717 9.50446 19.0717 9.11609C19.0717 8.72772 18.7568 8.41296 18.3686 8.41296Z" fill="white"/>
<path d="M18.3686 5.59998H16.1895C15.8011 5.59998 15.4863 5.91473 15.4863 6.3031C15.4863 6.69147 15.8011 7.00623 16.1895 7.00623H18.3686C18.7568 7.00623 19.0717 6.69147 19.0717 6.3031C19.0717 5.91473 18.7568 5.59998 18.3686 5.59998Z" fill="white"/>
<path d="M16.1895 4.19312H18.3686C18.7568 4.19312 19.0717 3.87836 19.0717 3.48999C19.0717 3.10181 18.7568 2.78687 18.3686 2.78687H16.1895C15.8011 2.78687 15.4863 3.10181 15.4863 3.48999C15.4863 3.87836 15.8011 4.19312 16.1895 4.19312Z" fill="white"/>
</svg>
