<svg width="19" height="24" viewBox="0 0 19 24" fill="none" xmlns="http://www.w3.org/2000/svg">
<mask id="path-1-inside-1" fill="white">
<path d="M19 9.91304C19 15.3879 13 20.8696 9.5 24C6 20.8696 0 15.3879 0 9.91304C0 4.43822 4.25329 0 9.5 0C14.7467 0 19 4.43822 19 9.91304Z"/>
</mask>
<path d="M9.5 24L8.83334 24.7454L9.5 25.3416L10.1667 24.7454L9.5 24ZM18 9.91304C18 12.3056 16.6748 14.8208 14.7786 17.2148C12.9007 19.5856 10.5858 21.6873 8.83334 23.2546L10.1667 24.7454C11.9142 23.1823 14.3493 20.9779 16.3464 18.4566C18.3252 15.9584 20 12.9953 20 9.91304H18ZM10.1667 23.2546C8.41425 21.6873 6.09929 19.5856 4.22139 17.2148C2.32515 14.8208 1 12.3056 1 9.91304H-1C-1 12.9953 0.674847 15.9584 2.65361 18.4566C4.65071 20.9779 7.08575 23.1823 8.83334 24.7454L10.1667 23.2546ZM1 9.91304C1 4.94997 4.84526 1 9.5 1V-1C3.66133 -1 -1 3.92647 -1 9.91304H1ZM9.5 1C14.1547 1 18 4.94997 18 9.91304H20C20 3.92647 15.3387 -1 9.5 -1V1Z" fill="#F4004D" mask="url(#path-1-inside-1)"/>
<circle cx="9.5" cy="9.5" r="5" stroke="#F4004D"/>
</svg>
