<svg width="22" height="22" viewBox="0 0 22 22" fill="none" xmlns="http://www.w3.org/2000/svg">
<path d="M10.9998 1.22244C16.3911 1.22244 20.7775 5.60882 20.7775 11.0002C20.7775 11.3379 21.0509 11.6113 21.3887 11.6113C21.7264 11.6113 21.9998 11.3379 21.9998 11.0002C21.9997 4.93502 17.0649 0.000244141 10.9998 0.000244141C10.662 0.000244141 10.3887 0.27358 10.3887 0.611369C10.3887 0.949101 10.662 1.22244 10.9998 1.22244Z" fill="#F4004D"/>
<path d="M10.9997 4.8887C14.3692 4.8887 17.1108 7.63031 17.1108 10.9998C17.1108 11.3376 17.3842 11.6109 17.7219 11.6109C18.0597 11.6109 18.3331 11.3376 18.3331 10.9998C18.3331 6.95599 15.0436 3.6665 10.9998 3.6665C10.662 3.6665 10.3887 3.93984 10.3887 4.27763C10.3886 4.61542 10.662 4.8887 10.9997 4.8887Z" fill="#F4004D"/>
<path d="M20.2346 14.4404C18.8876 14.4404 17.5651 14.2297 16.3119 13.8155C15.6859 13.6025 14.9763 13.7666 14.5681 14.1832L12.0944 16.0505C9.22566 14.5192 7.45857 12.7527 5.94814 9.90548L7.76055 7.49627C8.23143 7.02602 8.40032 6.3391 8.19797 5.69457C7.78203 4.43474 7.57074 3.11286 7.57074 1.76537C7.5708 0.791936 6.77887 0 5.80549 0H1.76526C0.791936 0 0 0.791936 0 1.76526C0 12.9228 9.0771 21.9998 20.2346 21.9998C21.2079 21.9998 21.9999 21.2079 21.9999 20.2345V16.2056C21.9998 15.2323 21.2079 14.4404 20.2346 14.4404ZM20.7776 20.2346C20.7776 20.5341 20.5341 20.7776 20.2346 20.7776C9.75085 20.7776 1.22225 12.249 1.22225 1.76531C1.22225 1.46574 1.46574 1.22225 1.76531 1.22225H5.80555C6.10512 1.22225 6.34861 1.46574 6.34861 1.76531C6.34861 3.24354 6.58075 4.69433 7.0349 6.06874C7.09815 6.27167 7.04682 6.4817 6.84154 6.69539L4.74085 9.47751C4.60002 9.66428 4.57791 9.91436 4.68356 10.1226C6.39811 13.4926 8.4815 15.576 11.8754 17.3151C12.0825 17.4225 12.3349 17.401 12.5223 17.259L15.3684 15.1028C15.5122 14.9584 15.7264 14.9077 15.9222 14.9739C17.3061 15.431 18.7569 15.6626 20.2346 15.6626C20.5341 15.6626 20.7776 15.9061 20.7776 16.2057V20.2346Z" fill="#F4004D"/>
</svg>
