<svg width="226" height="31" viewBox="0 0 226 31" fill="none" xmlns="http://www.w3.org/2000/svg">
<path fill-rule="evenodd" clip-rule="evenodd" d="M29.054 15.9388L14.9907 30.0834L0.92742 15.9388L14.9907 1.79426V15.9388H29.054ZM0.861084 1.72754H29.1203V30.1501H0.861084V1.72754Z" fill="#F4004D"/>
<path fill-rule="evenodd" clip-rule="evenodd" d="M221.761 1.57191V13.5147H204.447V1.57191C203.783 1.63863 201.395 1.63863 200.798 1.57191V29.9945H204.447V15.7165H221.761V29.9945H225.409V1.57191C225.409 1.57191 222.358 1.63863 221.761 1.57191ZM171.146 1.57191V29.9945H172.406C172.871 29.394 192.108 6.84277 192.108 6.84277V7.3098V29.9945H195.757V1.57191H193.899L174.662 23.7896L174.728 23.2558V1.57191H171.146ZM162.92 1.57191H161.925L150.781 23.3225L139.106 1.57191H138.243L134.13 29.9945H136.651L139.238 8.91108L150.117 29.5275L160.599 9.17795L163.053 29.9945H166.967L162.92 1.57191ZM116.883 6.64261L121.129 16.9842H112.505L116.883 6.64261ZM130.946 29.9945L118.409 0.971436H117.878L104.611 29.9945H107.065L111.775 18.7856H121.925L126.502 29.9945H130.946ZM92.604 15.3162V3.44006H98.0436C101.36 3.44006 103.417 6.10885 103.417 8.91108C103.417 12.5807 101.559 15.2494 97.2476 15.2494L92.604 15.3162ZM92.604 29.9945V17.1176L98.4416 17.0509C102.554 17.0509 106.933 14.0485 106.933 8.6442C106.933 3.64022 104.279 1.50519 96.3188 1.50519H88.9555V29.9278H92.604V29.9945ZM71.9735 13.9818V3.5735H79.2705L83.1843 3.84038V1.57191H68.3913V29.861H83.118V27.5926L79.4031 27.8595H71.9735V15.7832H81.5259V13.9818H71.9735ZM63.2171 1.57191H60.1657L46.8321 15.1827V14.649V1.57191H43.1836V29.9945H46.8321V16.5171L47.5618 15.7165L59.1706 29.9945H64.5438L51.4093 13.6482L63.2171 1.57191Z" fill="#F4004D"/>
</svg>
