<svg width="24" height="32" viewBox="0 0 24 32" fill="none" xmlns="http://www.w3.org/2000/svg">
<path d="M2.1729 31.0075C1.59946 31.0075 1.04951 30.7797 0.644025 30.3743C0.238541 29.9688 0.0107422 29.4188 0.0107422 28.8454V3.15456C0.0108141 2.76329 0.117061 2.37937 0.318153 2.04373C0.519246 1.70808 0.807647 1.4333 1.15262 1.24867C1.49759 1.06403 1.88619 0.976466 2.27701 0.995306C2.66783 1.01415 3.04621 1.13868 3.37182 1.35564L22.6453 14.201C22.9415 14.3985 23.1843 14.666 23.3522 14.9798C23.5201 15.2936 23.608 15.6441 23.608 16C23.608 16.3559 23.5201 16.7063 23.3522 17.0201C23.1843 17.3339 22.9415 17.6014 22.6453 17.7989L3.37182 30.6443C3.01679 30.881 2.59963 31.0074 2.1729 31.0075ZM2.1729 3.15456V28.8454L21.4453 16L2.1729 3.15456Z" fill="white"/>
</svg>
