<svg width="21" height="20" viewBox="0 0 21 20" fill="none" xmlns="http://www.w3.org/2000/svg">
<line x1="9.99146" y1="0.00488279" x2="9.99146" y2="20" stroke="#FF0F5B"/>
<line x1="9.99146" y1="0.00488279" x2="9.99146" y2="20" stroke="#FF0F5B"/>
<line x1="9.99146" y1="0.00488279" x2="9.99146" y2="20" stroke="#FF0F5B"/>
<path d="M12.8237 1.1156L10.0466 3.33728L7.26953 1.1156" stroke="#FF0F5B"/>
<path d="M12.8237 1.1156L10.0466 3.33728L7.26953 1.1156" stroke="#FF0F5B"/>
<path d="M12.8237 1.1156L10.0466 3.33728L7.26953 1.1156" stroke="#FF0F5B"/>
<path d="M12.8237 18.8893L10.0466 16.6676L7.26953 18.8893" stroke="#FF0F5B"/>
<path d="M12.8237 18.8893L10.0466 16.6676L7.26953 18.8893" stroke="#FF0F5B"/>
<path d="M12.8237 18.8893L10.0466 16.6676L7.26953 18.8893" stroke="#FF0F5B"/>
<line x1="1.36084" y1="5.05209" x2="18.6771" y2="15.0496" stroke="#FF0F5B"/>
<line x1="1.36084" y1="5.05209" x2="18.6771" y2="15.0496" stroke="#FF0F5B"/>
<line x1="1.36084" y1="5.05209" x2="18.6771" y2="15.0496" stroke="#FF0F5B"/>
<path d="M3.7393 3.15404L4.27478 6.66992L0.962202 7.96411" stroke="#FF0F5B"/>
<path d="M3.7393 3.15404L4.27478 6.66992L0.962202 7.96411" stroke="#FF0F5B"/>
<path d="M3.7393 3.15404L4.27478 6.66992L0.962202 7.96411" stroke="#FF0F5B"/>
<path d="M19.1311 12.0409L15.8185 13.3351L16.354 16.851" stroke="#FF0F5B"/>
<path d="M19.1311 12.0409L15.8185 13.3351L16.354 16.851" stroke="#FF0F5B"/>
<path d="M19.1311 12.0409L15.8185 13.3351L16.354 16.851" stroke="#FF0F5B"/>
<line x1="18.6772" y1="4.95535" x2="1.36099" y2="14.9529" stroke="#FF0F5B"/>
<line x1="18.6772" y1="4.95535" x2="1.36099" y2="14.9529" stroke="#FF0F5B"/>
<line x1="18.6772" y1="4.95535" x2="1.36099" y2="14.9529" stroke="#FF0F5B"/>
<path d="M19.1311 7.96413L15.8185 6.66993L16.354 3.15405" stroke="#FF0F5B"/>
<path d="M19.1311 7.96413L15.8185 6.66993L16.354 3.15405" stroke="#FF0F5B"/>
<path d="M19.1311 7.96413L15.8185 6.66993L16.354 3.15405" stroke="#FF0F5B"/>
<path d="M3.7393 16.8505L4.27478 13.3346L0.962202 12.0404" stroke="#FF0F5B"/>
<path d="M3.7393 16.8505L4.27478 13.3346L0.962202 12.0404" stroke="#FF0F5B"/>
<path d="M3.7393 16.8505L4.27478 13.3346L0.962202 12.0404" stroke="#FF0F5B"/>
</svg>
