<svg width="19" height="20" viewBox="0 0 19 20" fill="none" xmlns="http://www.w3.org/2000/svg">
<path fill-rule="evenodd" clip-rule="evenodd" d="M6.5903 9.80109L6.77354 9.5417V9.22411V1.95996H11.7717V9.22426V9.54185L11.955 9.80125L14.3599 13.2056L4.18526 13.2056L6.5903 9.80109ZM3.47883 14.2056L1.20628 17.4225C0.738349 18.0849 1.21204 18.9995 2.02303 18.9995H16.5221C17.3331 18.9995 17.8068 18.0849 17.3389 17.4225L15.0664 14.2056L3.47883 14.2056ZM12.7717 0.959961H11.7717H6.77354H5.77354V1.95996V9.22411L0.389522 16.8455C-0.546332 18.1703 0.401055 19.9995 2.02303 19.9995H16.5221C18.1441 19.9995 19.0915 18.1703 18.1557 16.8455L12.7717 9.22426V1.95996V0.959961Z" fill="#FF0F5B"/>
</svg>
