<svg width="23" height="24" viewBox="0 0 23 24" fill="none" xmlns="http://www.w3.org/2000/svg">
<path fill-rule="evenodd" clip-rule="evenodd" d="M16.364 4.10039C19.8787 7.61511 19.8787 13.3136 16.364 16.8283C12.8492 20.343 7.15076 20.343 3.63604 16.8283C0.12132 13.3136 0.12132 7.61511 3.63604 4.10039C7.15076 0.585676 12.8492 0.585676 16.364 4.10039ZM17.0711 3.39329C20.9763 7.29853 20.9763 13.6302 17.0711 17.5354C17.0424 17.5641 17.0136 17.5925 16.9847 17.6207L22.5563 23.1923L21.8492 23.8994L16.2342 18.2844C12.308 21.4223 6.56612 21.1726 2.92893 17.5354C-0.976311 13.6302 -0.976311 7.29853 2.92893 3.39329C6.83417 -0.511955 13.1658 -0.511955 17.0711 3.39329Z" fill="#fff"/>
</svg>
