<svg width="46" height="14" viewBox="0 0 46 14" fill="none" xmlns="http://www.w3.org/2000/svg">
<path d="M36.1849 11.44L35.1859 14H32.1287L37.8833 0H39.5018L45.1765 14H42.1194L41.1203 11.44H36.1849ZM38.6626 5L37.144 8.82H40.1612L38.6626 5Z" fill="#333333"/>
<path d="M21.8174 9.7L20.039 14H19L24.8346 0H25.3141L31.1287 14H30.0897L28.3113 9.7H21.8174ZM25.0743 1.82L22.177 8.8H27.9716L25.0743 1.82Z" fill="#333333"/>
<path d="M1.43864 7.71654C1.37994 7.6466 1.32508 7.5801 1.27421 7.51756C1.33191 7.45005 1.39445 7.37784 1.46163 7.30157C1.89519 6.80929 2.51524 6.15501 3.26211 5.50365C4.80067 4.16184 6.68782 3 8.5 3C10.3122 3 12.1993 4.16184 13.7379 5.50365C14.4848 6.15501 15.1048 6.80929 15.5384 7.30157C15.6055 7.37784 15.6681 7.45005 15.7258 7.51756C15.6749 7.5801 15.6201 7.6466 15.5614 7.71654C15.1509 8.20565 14.5589 8.85604 13.8325 9.50356C12.3452 10.8295 10.4555 12 8.5 12C6.54454 12 4.65477 10.8295 3.16747 9.50356C2.44115 8.85604 1.8491 8.20565 1.43864 7.71654Z" stroke="#333333" stroke-width="2"/>
<circle cx="8.5" cy="7.5" r="1.5" fill="black"/>
</svg>
